<?xml version="1.0" encoding="UTF-8"?>
<svg id="Calque_1" data-name="Calque 1" xmlns="http://www.w3.org/2000/svg" viewBox="0 0 360.14 259.67">
  <defs>
    <style>
      .cls-1 {
        fill: #f6c354;
      }

      .cls-2 {
        fill: #7a388d;
      }

      .cls-3 {
        fill: #5c1645;
      }

      .cls-4 {
        fill: #931760;
      }

      .cls-5 {
        fill: #e35298;
      }

      .cls-6 {
        fill: #fff;
      }
    </style>
  </defs>
  <path class="cls-1" d="M312.44,41.72l-8.84-1.56c-.11-.02-.11-.17,0-.19l8.84-1.57c3.51-.62,6.26-3.37,6.89-6.89l1.57-8.84c.02-.11.17-.11.19,0l1.57,8.84c.62,3.51,3.37,6.26,6.89,6.89l8.84,1.57c.11.02.11.17,0,.19l-8.84,1.56c-3.51.62-6.26,3.37-6.89,6.89l-1.57,8.84c-.02.11-.17.11-.19,0l-1.57-8.84c-.62-3.51-3.37-6.26-6.89-6.89"/>
  <path class="cls-1" d="M322.74,160.72l-12.71-2.25c-.15-.03-.15-.25,0-.27l12.71-2.25c5.05-.89,9-4.85,9.9-9.9l2.25-12.71c.03-.15.25-.15.27,0l2.25,12.71c.89,5.05,4.85,9,9.9,9.9l12.71,2.25c.15.03.15.25,0,.27l-12.71,2.25c-5.05.89-9,4.85-9.9,9.9l-2.25,12.71c-.03.15-.25.15-.27,0l-2.25-12.71c-.89-5.05-4.85-9-9.9-9.9"/>
  <path class="cls-1" d="M252.9,53.58l-2.49-.44s-.03-.05,0-.05l2.49-.44c.99-.17,1.76-.95,1.94-1.94l.44-2.49s.05-.03.05,0l.44,2.49c.17.99.95,1.76,1.94,1.94l2.49.44s.03.05,0,.05l-2.49.44c-.99.18-1.76.95-1.94,1.94l-.44,2.49s-.05.03-.05,0l-.44-2.49c-.17-.99-.95-1.76-1.94-1.94"/>
  <path class="cls-1" d="M250.77,201.8l-4.7-.83c-.06-.01-.06-.09,0-.1l4.7-.83c1.87-.33,3.33-1.79,3.66-3.66l.83-4.7c.01-.06.09-.06.1,0l.83,4.7c.33,1.87,1.79,3.33,3.66,3.66l4.7.83c.06.01.06.09,0,.1l-4.7.83c-1.87.33-3.33,1.79-3.66,3.66l-.83,4.7c-.01.06-.09.06-.1,0l-.83-4.7c-.33-1.87-1.79-3.33-3.66-3.66"/>
  <path class="cls-1" d="M125.85,243.86l-8.84-1.56c-.11-.02-.11-.17,0-.19l8.84-1.57c3.51-.62,6.26-3.37,6.89-6.89l1.57-8.84c.02-.11.17-.11.19,0l1.57,8.84c.62,3.51,3.37,6.26,6.89,6.89l8.84,1.57c.11.02.11.17,0,.19l-8.84,1.56c-3.51.62-6.26,3.37-6.89,6.89l-1.57,8.84c-.02.11-.17.11-.19,0l-1.57-8.84c-.62-3.51-3.37-6.26-6.89-6.89"/>
  <path class="cls-1" d="M84.25,85.81l-4.7-.83c-.06-.01-.06-.09,0-.1l4.7-.83c1.87-.33,3.33-1.79,3.66-3.66l.83-4.7c.01-.06.09-.06.1,0l.83,4.7c.33,1.87,1.79,3.33,3.66,3.66l4.7.83c.06.01.06.09,0,.1l-4.7.83c-1.87.33-3.33,1.79-3.66,3.66l-.83,4.7c0,.06-.09.06-.1,0l-.83-4.7c-.33-1.87-1.79-3.33-3.66-3.66"/>
  <path class="cls-1" d="M10.6,132.78l-10.5-1.86c-.13-.02-.13-.21,0-.23l10.5-1.86c4.17-.74,7.44-4,8.18-8.18l1.86-10.5c.02-.13.21-.13.23,0l1.86,10.5c.74,4.17,4,7.44,8.18,8.18l10.5,1.86c.13.02.13.2,0,.23l-10.5,1.86c-4.17.74-7.44,4.01-8.18,8.18l-1.86,10.5c-.02.13-.21.13-.23,0l-1.86-10.5c-.74-4.17-4-7.44-8.18-8.18"/>
  <path class="cls-1" d="M109.87,19.13l-8.84-1.56c-.11-.02-.11-.17,0-.19l8.84-1.57c3.51-.62,6.26-3.37,6.89-6.89L118.32.08c.02-.11.17-.11.19,0l1.57,8.84c.62,3.51,3.37,6.26,6.89,6.89l8.84,1.57c.11.02.11.17,0,.19l-8.84,1.56c-3.51.62-6.26,3.37-6.89,6.89l-1.57,8.84c-.02.11-.17.11-.19,0l-1.57-8.84c-.62-3.51-3.37-6.26-6.89-6.89"/>
  <path class="cls-5" d="M160.05,191.07c.52.97,1.17,1.85,1.95,2.63-1.83-.5-3.63-1.07-5.41-1.71,1.15-.3,2.31-.6,3.46-.92Z"/>
  <path class="cls-5" d="M243.81,165.85c.31,0,.65-.03.99-.1-8.4,11.07-19.87,20.03-33.77,25.45-12.16,4.73-24.78,6.21-36.9,4.85.89-.35,1.71-.77,2.46-1.27,1.52-1.02,2.72-2.31,3.59-3.85.77-1.38,1.36-2.83,1.75-4.32.19-.73.35-1.52.47-2.34.76-.09,1.49-.29,2.23-.59.47-.21.91-.43,1.33-.69.28-.16.54-.34.8-.52,0,.07.02.15.04.22.21,1.25.66,2.39,1.34,3.4.81,1.21,1.88,2.09,3.2,2.62.78.31,1.64.46,2.53.46s1.89-.16,2.9-.49c1.97-.64,3.45-1.69,4.37-3.13.16-.23.31-.47.46-.73.71.37,1.48.56,2.29.56,1.08,0,2.2-.34,3.34-1,.98-.53,1.84-1.4,2.56-2.61.04-.08.09-.16.14-.25.62.26,1.27.39,1.96.39,1.11,0,2.26-.35,3.43-1.05.97-.55,1.81-1.46,2.5-2.7.47.15.97.22,1.5.22,0,0,.19,0,.27,0,.69,0,1.36-.12,2-.35.59-.21,1.19-.5,1.82-.88.97-.58,1.77-1.49,2.44-2.79,0-.01.01-.03.02-.04.44.12.9.18,1.38.18h.24c.74,0,1.47-.13,2.14-.4.59-.22,1.18-.53,1.8-.93.95-.6,1.73-1.54,2.37-2.86.21-.43.4-.88.57-1.35.36.14.71.25,1.02.32.63.16,1.25.24,1.84.24.62,0,1.22-.09,1.78-.27,1.15-.37,2.12-1.07,2.81-2.02.34-.46.62-.97.85-1.52.39.09.77.13,1.16.13Z"/>
  <path class="cls-2" d="M229.64,136.02c-6.87,3.83-14.52,7.62-22.76,11.22-4.77,2.09-9.74,4.11-14.87,6.05-18.97,7.16-37.27,11.83-52.57,13.94-6.03.83-11.59,1.27-16.55,1.31-.03-.03-.06-.06-.08-.1-2.3-2.76-4.42-5.7-6.34-8.81,19.42,1.54,48.76-2.47,80.38-11.94,11.71-3.5,22.75-7.47,32.79-11.68Z"/>
  <path class="cls-5" d="M260.51,112.93h0c-2.49,3.04-5.91,6.26-10.14,9.58-.53.42-1.1.79-1.68,1.13-13.78,7.74-31.81,15.3-52.06,21.36-34.98,10.48-66.89,13.61-83.21,9.23-1.22-2.37-2.33-4.83-3.32-7.37-.61-1.57-1.17-3.15-1.67-4.74-.12-.4-.24-.78-.36-1.16-.19-.63-.37-1.25-.54-1.89-1.27-4.64-2.09-9.32-2.48-13.99-.01-.13-.02-.27-.03-.4-.03-.39-.06-.77-.08-1.16,0-.05,0-.1,0-.15,0-.18-.02-.36-.03-.54-.01-.31-.03-.62-.04-.92-.01-.22-.02-.44-.03-.66v-.06c0-.29-.02-.56-.02-.82-.03-1.39-.02-2.77.02-4.15h0c0-.48.03-.96.06-1.43,0-.15.01-.3.02-.45,0-.08,0-.17.01-.26,1.72-29.5,20.22-56.72,49.56-68.15,32.3-12.58,67.88-2.16,88.68,23.32.19.23.38.46.56.7.14.17.27.34.4.5.34.44.7.9,1.07,1.39.3.39.59.79.87,1.19.11.15.22.31.33.46.07.1.15.21.22.32.24.33.47.67.7,1.01.2.29.4.6.61.91.22.33.43.66.65,1,.15.23.29.47.44.71.08.13.16.27.25.41.02.04.05.08.07.12,2.3,3.78,4.3,7.8,5.97,12.05h0c.07.18.14.37.21.54.5,1.31.97,2.63,1.4,3.95,1.98,6.09,3.17,12.27,3.62,18.42Z"/>
  <path class="cls-1" d="M260.68,120.66s0,.05,0,.07c-.03,1.08-.08,2.15-.16,3.21-.15-.02-.3-.04-.45-.04-.11,0-.22,0-.33.02-1.52.19-3.11.79-4.73,1.8-.74.46-1.2,1.26-1.23,2.13-.02.6.02,1.34.13,2.22-1.45.85-2.81,1.35-4.05,1.49-.81.09-1.54.55-1.96,1.25-.42.7-.49,1.56-.2,2.31.34.87.82,1.63,1.45,2.26.6.62,1.3,1.11,2.07,1.43-.32.27-.63.58-.94.94-.11.13-.22.26-.33.39-.45.01-.89.15-1.28.39-.48.3-1.21.73-2.19,1.28l-2.3,1.31c-.57.33-.99.84-1.19,1.44-.05,0-.11,0-.16,0-.44,0-.89.11-1.29.34l-3.12,1.78c-.6.34-1.04.9-1.22,1.56-.22,0-.42.03-.6.05-1.92.23-4.43,1.24-6.04,4.63l-.36-6.09c-.05-.88-.54-1.67-1.3-2.12-.4-.23-.86-.35-1.32-.35-.4,0-.79.09-1.16.27-2,.99-3.55,1.73-4.61,2.21-.64.29-1.12.8-1.37,1.43-.07,0-.14,0-.21,0-.38,0-.75.08-1.1.24-2.04.95-3.61,1.65-4.67,2.09-1.02.42-1.66,1.44-1.61,2.54.02.36.03.77.06,1.2-.22-.07-.45-.12-.68-.16-.41-.06-.81-.1-1.24-.1-.55,0-1.15.12-1.83.36-.4.14-.75.27-1.04.38-.41.15-.91.39-1.51.74-.1.06-.2.11-.3.17-.4-.28-.87-.45-1.37-.48-.19-.01-.38-.02-.57-.02-1.37,0-2.85.31-4.41.91-.81.32-1.42,1.02-1.61,1.87-.13.59-.23,1.32-.28,2.21-.79.28-1.55.47-2.26.59-.45-1.03-1.49-2.31-3.88-2.76-.16-.03-.33-.04-.48-.04-1.02,0-1.96.59-2.39,1.54-.06.14-.21.5-.43,1.07-.03.08-.06.15-.08.22-.17-.12-.34-.23-.51-.34-.72-.39-1.52-.59-2.36-.59-.24,0-.48.01-.76.05-.77.27-1.54.53-2.31.78,0,0,0,0,0,0-1.01.55-1.96,1.37-2.85,2.44-.23,0-.46-.01-.7-.01-.29,0-.58,0-.88.02-1.12.04-2.19.15-3.19.32-1.02.16-1.94.39-2.75.67-.43.13-.76.25-.98.36-.46.21-.92.46-1.35.76-.25.13-.47.3-.67.5,0,0-.1.09-.1.1-1.08.91-1.86,2.06-2.32,3.4-.48,1.43-.5,2.91-.04,4.41.06.18.12.36.19.53-.07.02-.14.04-.21.06-3.05.94-5.33,2.85-6.81,5.68-.99,1.91-1.44,3.88-1.33,5.9,0,.02,0,.04,0,.06-2.14.56-4.26,1.09-6.37,1.59,0-.01,0-.03-.01-.04-.08-.26-.16-.51-.26-.77-.24-.66-.51-1.31-.82-1.96.33-.7.42-1.48.26-2.26-.13-.61-.39-1.17-.77-1.7-.44-.6-1.01-1.06-1.72-1.37-.5-.22-1.03-.33-1.56-.33-.33,0-.65.04-.99.13-.78.2-2.21.84-2.99,2.86-.3.79-.44,1.6-.41,2.41-.18.24-.37.49-.56.75-5.53-3.34-10.67-7.37-15.26-12.04-.04-.04-.08-.08-.12-.12,4.18-.36,8.62-.93,13.28-1.69,13.06-2.14,27.81-5.85,43.2-11.08.15-.05.3-.1.44-.15,0,0,.01,0,.02,0,3.2-1.09,6.42-2.25,9.66-3.47.04-.01.08-.03.13-.05,19.29-7.29,36.54-15.71,50.1-24.08,6.52-4.02,12.18-8.03,16.82-11.9Z"/>
  <path class="cls-4" d="M144.59,43.79s-8.67,5.79-11.38,11.86c-2.71,6.07,4.21,7.47,6.68,7.42,2.47-.05,7.5-.07,17.54-3.74,10.04-3.67,16.94-8.36,16.94-8.36,0,0,5.03-2.9,8.35-6.48s-.93-5.25-4.01-6.55c-3.08-1.3-11.43-2.7-15.02-1.06-3.6,1.64-19.1,6.92-19.1,6.92"/>
  <path class="cls-4" d="M150.46,34.58s2.99-1.52,6.21-1.71c3.22-.19,5.66.66,6.8,3.21,1.14,2.55.49,4.41-1.15,6.4-1.63,1.99-5.49,3.52-5.72,3.61-.24.09-4.03,1.67-7.71.67-3.68-1-5.16-3.77-3.8-6.89,1.36-3.11,3.74-4.47,5.38-5.29"/>
  <path class="cls-3" d="M144.89,43.67s2.28,5.99,11.71,2.42c9.43-3.57,7.09-9.22,7.09-9.22,0,0,.94,5.64-7.54,8.19-8.36,2.51-9.75.17-11.26-1.38"/>
  <path class="cls-6" d="M122.24,88.66c.03-1.37-1.85-1.77-2.39-.51-3.34,7.81-8.37,22.98-4.08,35.76,4.9,14.58,6.16-20.85,6.47-35.25"/>
  <path class="cls-2" d="M104.92,123.51c-4.62,2.4-8.8,4.69-13,7.1-4.8,2.75-9.32,5.51-13.52,8.25-3.27,2.13-6.36,4.25-9.24,6.36h0s0,0,0,0c1.65-2.56,3.79-5.18,6.41-7.84.29-.3.59-.6.89-.89,6.66-6.55,16.17-13.36,28.34-20.27-.08,1.34-.06,2.61-.02,4.15,0,.27.01.54.02.82v.06c.02.71.06,1.42.1,2.13,0,.05,0,.1,0,.15Z"/>
  <path class="cls-1" d="M182.56,160.76c-1.01.55-1.96,1.37-2.85,2.44-.23,0-.46-.01-.7-.01-.29,0-.58,0-.88.02-1.12.04-2.19.15-3.19.32-1.02.16-1.94.39-2.75.67-.43.13-.76.25-.98.36-.46.21-.92.46-1.35.76-.25.13-.47.3-.67.5,0,0-.1.09-.1.1-1.08.91-1.86,2.06-2.32,3.4-.48,1.43-.5,2.91-.04,4.41.06.18.12.36.19.53-.07.02-.14.04-.21.06-3.05.94-5.33,2.85-6.81,5.68-.99,1.91-1.44,3.88-1.33,5.9,0,.02,0,.04,0,.06-2.14.56-4.26,1.09-6.37,1.59,0-.01,0-.03-.01-.04-.08-.26-.16-.51-.26-.77-.24-.66-.51-1.31-.82-1.96.33-.7.42-1.48.26-2.26-.13-.61-.39-1.17-.77-1.7-.44-.6-1.01-1.06-1.72-1.37-.5-.22-1.03-.33-1.56-.33-.33,0-.65.04-.99.13-.78.2-2.21.84-2.99,2.86-.3.79-.44,1.6-.41,2.41-.18.24-.37.49-.56.75-.3.39-.62.79-.97,1.21-.89.07-1.73.33-2.51.78-.04-.11-.08-.22-.13-.32-.38-.82-1.17-1.93-2.76-2.54-.95-.39-1.94-.59-2.93-.59-.38,0-.76.03-1.14.08-1.37.21-2.65.78-3.78,1.72-.92.76-1.78,1.66-2.55,2.68-.81,1.08-1.46,2.29-1.92,3.61-.13.38-.25.75-.35,1.12-2.02.28-4.02.52-5.99.74.2-.55.42-1.14.68-1.77.1-.16.19-.33.26-.5,1.81-4.81,3.12-6.88,3.84-7.74.09,0,.18,0,.28,0,1.74,0,3.11-.93,3.69-2.53.31-.92.57-2.73-1.19-4.61-.97-1.02-2.18-1.55-3.48-1.55-.4,0-.79.05-1.19.15-.33-.14-.67-.26-1.01-.39-.73-.25-1.54-.47-2.42-.66-.89-.19-1.77-.32-2.63-.39-.38-.03-.76-.04-1.15-.04-.53,0-1.09.03-1.66.08-1.82.19-3.43.95-4.77,2.24-1.44,1.38-2.19,3.2-2.17,5.27,0,1.74.73,3.34,2.06,4.62.99.95,2.11,1.59,3.36,1.91-.97,1.76-1.73,3.46-2.28,5.08-.22.07-.44.16-.67.26-.82.35-1.61.87-2.34,1.54-.04.04-.08.08-.13.13-8.65.46-16.56.34-23.5-.36-.72-.07-1.42-.15-2.12-.24-.48-.06-.95-.12-1.42-.18-.46-.06-.93-.13-1.39-.2-.87-.13-1.73-.27-2.57-.42-.39-.07-.77-.14-1.14-.21-.2-.04-.4-.08-.6-.12-.32-.06-.63-.13-.94-.2-.43-.09-.86-.19-1.28-.29-.39-.09-.77-.19-1.15-.29-.37-.09-.73-.19-1.09-.29-.11-.03-.22-.06-.33-.09-.26-.07-.52-.15-.77-.22-.5-.15-.99-.31-1.47-.47-.26-.08-.52-.17-.77-.26-.03,0-.06-.02-.09-.03-.33-.11-.66-.24-.98-.36-.29-.11-.58-.22-.85-.34-.11-.04-.21-.08-.32-.13-.21-.08-.42-.17-.62-.27-.26-.11-.52-.23-.77-.35-.4-.18-.8-.38-1.19-.58-.42-.22-.83-.44-1.22-.67-.11-.06-.21-.12-.32-.18-.54-.33-1.05-.66-1.54-1.01-.12-.08-.23-.17-.35-.25-.23-.16-.44-.34-.66-.51-.11-.08-.22-.17-.32-.26-.95-.8-1.77-1.65-2.45-2.55-.06-.08-.12-.16-.18-.25-.31-.43-.59-.87-.84-1.32-.04-.07-.08-.14-.11-.22-.22-.42-.41-.85-.58-1.29-1.53-4.07-.78-8.7,1.97-13.73.1-.18.2-.36.31-.54.07-.13.15-.27.24-.41.21-.37.44-.73.68-1.1,1.18-1.84,2.63-3.74,4.3-5.67,2.34-2.69,5.15-5.45,8.39-8.27,5.27-4.59,11.69-9.31,19.11-14.08,5.92-3.82,12.34-7.58,19.45-11.41,0,.39.07.75.11,1.15.06.75.16,1.46.26,2.25h0c.24,2.04.65,4.15,1.07,6.26.22,1.12.54,2.18.78,3.32.08.41.16.55.25.93,0,.02,0,.04.01.07-1.76,1.33-4,3.1-5.51,4.4-3.18,2.74-5.79,5.41-7.75,7.97-.55.72-1.05,1.42-1.5,2.12-.08.11-.14.22-.21.33-.07.11-.13.22-.2.33-.02.02-.03.05-.04.07-.05.08-.1.17-.15.25-.05.08-.09.17-.14.25-.09.17-.19.34-.28.51-.3.56-.56,1.11-.78,1.65-1.15,2.79-1.34,5.38-.46,7.7.1.27.22.53.36.79,2.56,5.05,10.67,7.74,22.45,8.13,4.2.13,8.86-.02,13.9-.48,4.12-.36,8.49-.92,13.08-1.67,12.81-2.1,27.26-5.71,42.35-10.78Z"/>
  <path class="cls-1" d="M293.69,115.71c-2.01,2.06-4.25,4.36-6.72,6.77-.34-.37-.7-.73-1.06-1.06-.52-.48-1.07-.93-1.64-1.36-.03-.78-.31-1.52-.8-2.12-.4-.48-.89-.87-1.47-1.16-.58-.29-1.2-.43-1.86-.43-.09,0-.19,0-.29,0-.87.06-1.68.4-2.35,1-.6.54-1.57,1.77-1.33,3.92.1.84.35,1.62.76,2.32-.12.75-.27,1.57-.46,2.44-.72.45-1.33,1.04-1.8,1.76-.08-.07-.17-.13-.26-.2-.81-.58-1.79-.89-2.83-.9.13-1.88-.66-3.04-1.32-3.67-.44-.43-.93-.78-1.43-1.03-.61-.31-1.28-.46-1.97-.46-.03,0-.12,0-.16,0-.42.01-.81.05-1.16.11-.56.09-1.15.33-1.79.7-.38.22-.7.41-.96.57-.37.22-.79.54-1.35,1l-.26.22c-.21-.09-.42-.16-.65-.2-.15-.02-.3-.04-.45-.04-.11,0-.22,0-.33.02-1.52.19-3.11.79-4.73,1.8-.74.46-1.2,1.26-1.23,2.13-.02.6.02,1.34.13,2.22-1.45.85-2.81,1.35-4.05,1.49-.81.09-1.54.55-1.96,1.25-.42.7-.49,1.56-.2,2.31.34.87.82,1.63,1.45,2.26.6.62,1.3,1.11,2.07,1.43-.32.27-.63.58-.94.94-.11.13-.22.26-.33.39-.45.01-.89.15-1.28.39-.48.3-1.21.73-2.19,1.28l-2.3,1.31c-.57.33-.99.84-1.19,1.44-.05,0-.11,0-.16,0-.44,0-.89.11-1.29.34l-3.12,1.78c-.6.34-1.04.9-1.22,1.56-.22,0-.42.03-.6.05-1.92.23-4.43,1.24-6.04,4.63l-.36-6.09c-.05-.88-.54-1.67-1.3-2.12-.4-.23-.86-.35-1.32-.35-.4,0-.79.09-1.16.27-2,.99-3.55,1.73-4.61,2.21-.64.29-1.12.8-1.37,1.43-.07,0-.14,0-.21,0-.38,0-.75.08-1.1.24-2.04.95-3.61,1.65-4.67,2.09-1.02.42-1.66,1.44-1.61,2.54.02.36.03.77.06,1.2-.22-.07-.45-.12-.68-.16-.41-.06-.81-.1-1.24-.1-.55,0-1.15.12-1.83.36-.4.14-.75.27-1.04.38-.41.15-.91.39-1.51.74-.1.06-.2.11-.3.17-.4-.28-.87-.45-1.37-.48-.19-.01-.38-.02-.57-.02-1.37,0-2.85.31-4.41.91-.81.32-1.42,1.02-1.61,1.87-.13.59-.23,1.32-.28,2.21-.79.28-1.55.47-2.26.59-.45-1.03-1.49-2.31-3.88-2.76-.16-.03-.33-.04-.48-.04-1.02,0-1.96.59-2.39,1.54-.06.14-.21.5-.43,1.07-.03.08-.06.15-.08.22-.17-.12-.34-.23-.51-.34-.72-.39-1.52-.59-2.36-.59-.24,0-.48.01-.76.05,2.88-.99,5.77-2.04,8.68-3.13.04-.02.08-.03.12-.05,19.29-7.29,36.54-15.72,50.1-24.08,6.55-4.04,12.25-8.08,16.9-11.97.52-.43,1.03-.87,1.53-1.3,4.11-3.58,7.3-7.03,9.41-10.23.12-.18.23-.35.35-.53.11-.17.22-.35.32-.52.08-.13.15-.26.22-.38,1.09-1.88,1.77-3.67,2.03-5.34.31-1.95.03-3.75-.89-5.34-2.18-3.75-9.44-6.27-18.36-7.08h0s-.09,0-.13-.01c-.27-.59-.24-.69-.51-1.25-.65-1.35-1.07-2.69-1.76-3.92-.58-1.05-.97-2.1-1.56-3.07-.11-.18-.2-.39-.31-.56-.25-.39-.38-.74-.62-1.12-.42-.65-.82-1.49-1.24-2.1.05,0,.1,0,.15-.01,25.55-2.53,46.61-.84,54.05,6.08.08.08.17.16.25.24.64.63,1.16,1.3,1.57,2.01.21.37.39.75.55,1.15,2.69,6.89-2.68,18.66-12.03,28.26Z"/>
  <path class="cls-2" d="M297.05,116.52c12.84-12,18.45-22.84,14.26-30.65-.05-.1-.1-.21-.16-.31-5.76-10-29.7-13.41-62.91-9.3-.12-.18-.24-.36-.36-.54-.2-.31-.4-.62-.61-.91-.22-.34-.45-.68-.7-1.01-.07-.11-.14-.22-.22-.32-.11-.16-.22-.31-.33-.46-.3-.42-.59-.81-.87-1.19-.37-.49-.73-.95-1.07-1.39-.1-.13-.2-.26-.3-.39,43.09-6.24,74.77-2.33,79.03,11.89,2.84,9.48-7.12,21.89-25.77,34.58Z"/>
  <path class="cls-2" d="M229.64,136.02c-6.87,3.83-14.52,7.62-22.76,11.22-4.77,2.09-9.74,4.11-14.87,6.05-18.97,7.16-37.27,11.83-52.57,13.94-5.85.63-11.41,1.04-16.63,1.21-.96.03-1.91.06-2.84.07-9.07-.24-15.79-1.97-19.12-5.23-.09-.09-.19-.19-.28-.29-.28-.29-.52-.59-.74-.9-.07-.1-.14-.21-.21-.32-.2-.32-.38-.65-.53-.99-.04-.11-.1-.22-.14-.34-.33-.88-.49-1.81-.49-2.77,0-.19,0-.38.02-.56,0-.01,0-.02,0-.04,0-.18.02-.36.05-.53.01-.14.04-.28.06-.42.03-.17.06-.35.1-.52.02-.1.04-.2.07-.31,4.1,2.29,10.16,3.73,17.71,4.33,19.42,1.54,48.76-2.47,80.38-11.94,11.71-3.5,22.75-7.47,32.79-11.68Z"/>
  <path class="cls-6" d="M78.81,194.24c-15.3-1.84-25.57-6.56-28.31-13.82-1.53-4.07-.78-8.7,1.97-13.73-2.69,4.97-3.42,9.56-1.9,13.59,2.75,7.3,12.97,12.08,28.23,13.96Z"/>
  <path class="cls-2" d="M78.4,138.85c-3.27,2.13-6.36,4.25-9.24,6.36h0s0,0,0,0c2.88-2.1,5.97-4.22,9.24-6.35Z"/>
  <path class="cls-6" d="M104.8,116.19c.01-.63.04-1.25.08-1.87-.03.61-.03,1.18-.08,1.87Z"/>
  <path class="cls-1" d="M117.35,193.77c1.97-.22,3.97-.47,6-.76-.23.8-.39,1.58-.49,2.33-.11-.02-.23-.03-.35-.03-.59,0-1.18.2-1.65.59-.13.1-.25.23-.36.36-.11-.06-.23-.12-.37-.2-1.31-.71-2.29-1.22-3.03-1.6.07-.22.16-.45.25-.69Z"/>
  <path class="cls-1" d="M152.19,187.5c2.11-.51,4.24-1.05,6.39-1.61,0,.02,0,.04,0,.06-2.14.56-4.26,1.09-6.37,1.59,0-.01,0-.03-.01-.04Z"/>
  <path class="cls-5" d="M186.75,182.47c0,.07.02.15.04.22-.28.1-.56.2-.84.3.28-.16.54-.34.8-.52Z"/>
  <path class="cls-6" d="M243.69,69.93c-.2-.24-.39-.47-.56-.7.19.23.38.46.56.7Z"/>
  <path class="cls-1" d="M273.72,96.96c-2.19-3.78-9.51-6.3-18.5-7.1.02.05.04.1.06.15,8.92.81,16.18,3.33,18.36,7.08.92,1.59,1.2,3.39.89,5.34-.26,1.67-.94,3.46-2.03,5.34,1.13-1.93,1.85-3.77,2.11-5.48.3-1.95.02-3.75-.9-5.34ZM99.09,160.79c-.05-.11-.1-.22-.15-.34.04.12.1.23.14.34.15.35.33.68.53.99-.2-.32-.38-.65-.53-.99ZM99.83,162.1c.22.31.46.61.74.9-.27-.29-.52-.59-.74-.9ZM107.43,139.13c-1.74,1.32-3.93,3.06-5.42,4.33-3.18,2.74-5.78,5.41-7.75,7.97-.58.76-1.11,1.52-1.57,2.26.45-.7.95-1.4,1.5-2.12,1.96-2.55,4.57-5.22,7.75-7.97,1.51-1.3,3.75-3.07,5.51-4.4,0-.02,0-.05-.01-.07Z"/>
  <path class="cls-2" d="M122.51,197.94c.08.74-.02,1.22-.29,1.45-.42.32-1.53-.01-3.34-1.01-2.57-1.39-4.22-2.23-4.94-2.52.31-1.28.93-3.06,1.85-5.34l.04.04c2.01-5.37,3.84-8.57,5.49-9.62,1.26.36,2.02.17,2.29-.57.22-.64.02-1.3-.6-1.96-.8-.83-1.76-.96-2.89-.39-.55-.27-1.13-.51-1.76-.73-.63-.22-1.33-.41-2.11-.58-.78-.17-1.54-.28-2.28-.34-.74-.06-1.52-.05-2.33.03-1.23.13-2.31.64-3.23,1.52-.92.88-1.38,2-1.37,3.36,0,1.04.42,1.95,1.26,2.75.83.8,1.78,1.25,2.84,1.37.84.04,1.63-.14,2.37-.55.74-.41,1.31-.99,1.73-1.73-.56.32-1.05.35-1.46.06-.41-.28-.61-.73-.62-1.35.02-.47.17-.86.44-1.19.27-.32.58-.56.94-.71.36-.15.77-.24,1.24-.28.47-.04.91-.04,1.31.01.41.05.8.11,1.17.18h.15c.07.02.17.06.29.11.12.05.2.07.22.07-1.77,1.59-3.58,3.86-5.45,6.82-1.87,2.96-3.14,5.7-3.81,8.22-.59.1-1.16.27-1.72.51-.55.24-1.09.59-1.6,1.06-.51.47-.83,1.05-.95,1.73-.12.68-.04,1.5.24,2.46.44-.92,1-1.47,1.69-1.68.69-.2,1.44-.12,2.26.24.82.36,1.68.85,2.6,1.45.92.6,1.88,1.21,2.88,1.85,1,.63,1.98,1.16,2.93,1.57.95.41,1.92.57,2.91.48.98-.09,1.86-.54,2.62-1.33.34-.32.57-.87.69-1.65.12-.78.03-1.55-.25-2.33-.29-.77-.77-1.27-1.43-1.49"/>
  <path class="cls-2" d="M149.47,187.63c-.41-1.13-.93-2.24-1.56-3.31.33-.1.58-.28.74-.51.16-.24.21-.48.16-.74-.05-.26-.16-.49-.32-.72-.16-.22-.38-.39-.65-.51-.27-.12-.55-.14-.84-.07-.53.14-.93.56-1.2,1.27-.27.71-.31,1.42-.12,2.14-.81,1.18-1.84,2.5-3.1,3.96-1.01-.18-1.91.01-2.7.59-.79.58-1.36,1.37-1.69,2.36-.03.08-.04.17-.07.25-.26,0-.45.12-.55.36-.38.68-.97,1.58-1.78,2.7-.43.44-.91.81-1.43,1.12-.53.31-1.05.53-1.55.65-.51.12-.97.06-1.37-.18-.41-.24-.68-.71-.82-1.39.74-.49,1.35-.9,1.8-1.21.45-.32.99-.75,1.62-1.31.63-.56,1.15-1.12,1.57-1.68.45-.49.76-1.04.92-1.65.16-.61.12-1.19-.13-1.74-.25-.55-.71-.95-1.38-1.2-.88-.36-1.77-.47-2.67-.34-.9.14-1.74.52-2.51,1.15-.77.63-1.48,1.38-2.13,2.23-.65.86-1.16,1.82-1.52,2.88-.37,1.06-.62,2.09-.74,3.06-.13.98-.04,1.91.25,2.8.3.89.79,1.58,1.49,2.09.88.68,2.07.98,3.56.88,1.49-.09,2.63-.51,3.43-1.26.94-.76,1.85-1.84,2.72-3.23.39-.63.74-1.23,1.06-1.82.21,1.64,1.1,2.94,2.67,3.92,1.59.99,3.29,1.16,5.11.51,1.27-.51,2.27-1.22,3.02-2.13.75-.91,1.24-1.9,1.46-2.96.23-1.06.26-2.2.11-3.43-.15-1.22-.43-2.4-.84-3.54M130.71,193.12c.03-.17.06-.3.07-.4.18-.73.43-1.42.75-2.06.32-.64.66-1.15,1-1.53.35-.38.68-.59,1-.62.12-.01.23,0,.33,0,.8.1.68.85-.38,2.27-.97,1.28-1.91,2.18-2.83,2.69,0-.08,0-.19.04-.36M146.52,192.06c-.19.81-.46,1.41-.79,1.82-.57.77-1.21.87-1.9.31-.58-.51-.8-1.08-.66-1.73.16-.83.93-1.2,2.29-1.13-.13-.63-.46-1.12-.99-1.49.16-.23.47-.67.92-1.33.45-.66.76-1.12.92-1.37.57,1.51.64,3.14.21,4.92"/>
  <path class="cls-2" d="M186.45,169.01c-.97-1.12-2.24-1.98-3.81-2.58.36-.5.83-.81,1.41-.94.51-.1.97-.02,1.38.26.41.28.65.7.72,1.27.63-.14,1.13-.53,1.5-1.18.37-.64.42-1.27.15-1.89-.23-.5-.59-.88-1.07-1.14-.48-.26-1.05-.33-1.71-.21-1.45.32-2.81,1.43-4.08,3.34-.79-.12-1.69-.16-2.71-.12-1.02.04-1.98.14-2.87.28-.9.15-1.68.34-2.36.57-.33.1-.57.19-.73.26-.39.17-.76.39-1.12.65l-.07.02c-.18.18-.28.28-.3.28-.72.61-1.23,1.36-1.53,2.25-.31.89-.31,1.83-.01,2.79.3.99.97,1.75,2,2.27,1.03.53,2.07.69,3.15.49.82-.2,1.52-.6,2.1-1.21.59-.61.96-1.32,1.12-2.15-.45.47-.91.63-1.38.48-.47-.15-.8-.52-.98-1.11-.11-.53-.08-1.01.1-1.44.18-.43.46-.76.84-.99.38-.23.81-.44,1.3-.61.49-.18.97-.29,1.45-.33v.04c.18-.05.41-.08.72-.1l.11-.03s-.05.12-.09.28c-.04.16-.09.31-.13.47-.04.15-.07.25-.09.28-.39,1.25-.85,3.4-1.39,6.43-.14.64-.33,1.61-.57,2.93-.21.82-.4,1.5-.57,2.05-.16.55-.42,1.2-.76,1.94-.34.74-.78,1.35-1.31,1.84-.53.49-1.14.84-1.83,1.05-.72.25-1.36.24-1.91-.03-.76-.39-1.16-1.05-1.19-2-.03-.84.3-1.37.99-1.58.42-.15.78-.12,1.08.11.3.23.41.62.32,1.16,1.32-.82,2.09-1.76,2.3-2.84.24-1.24-.28-2.25-1.56-3.04-1.54-.97-3.39-1.12-5.56-.46-2.36.73-4.11,2.19-5.25,4.38-1.14,2.2-1.35,4.47-.63,6.83.64,2.07,1.84,3.73,3.62,4.96,1.77,1.24,3.66,1.65,5.65,1.24,1.66-.3,3.08-.85,4.26-1.64,1.18-.79,2.1-1.77,2.77-2.96.67-1.19,1.17-2.42,1.5-3.69.33-1.28.55-2.72.65-4.32,1.3.2,2.48.08,3.53-.35,1.77-.78,3.1-1.94,3.98-3.49.88-1.55,1.09-3.32.63-5.32-.18-1.18-.76-2.34-1.72-3.46M183.63,174.02c-.29.68-.74,1.27-1.34,1.75-.6.48-1.28.78-2.05.88v-.2c.02-.23.04-.55.07-.96.03-.41.06-.73.09-.97,0-.23.04-.56.1-.98.06-.42.14-.89.24-1.43.09-.53.22-1.11.37-1.74.15-.63.32-1.21.49-1.75.03-.06.07-.15.11-.27.8.32,1.4.82,1.81,1.48.41.66.6,1.36.58,2.09-.02.73-.18,1.44-.47,2.12"/>
  <path class="cls-2" d="M190.56,167.65c.19.3.46.55.8.76.35.21.76.4,1.24.56-.11-.99-.07-1.93.13-2.84.2-.9.39-1.68.58-2.32.19-.64.25-1.16.18-1.55-.14-.84-.83-1.39-2.08-1.62-.06.13-.19.45-.39.96-.2.51-.34.88-.42,1.09-.08.21-.19.56-.35,1.05-.16.48-.24.85-.25,1.1,0,.26-.03.58-.06.99-.03.41.02.74.14,1,.12.26.28.53.47.83"/>
  <path class="cls-2" d="M288,129.19c-.29-1.04-.79-2.07-1.49-3.09-.7-1.02-1.49-1.93-2.38-2.75-.89-.82-1.86-1.55-2.91-2.21.25-.25.39-.51.42-.8.03-.29-.04-.53-.2-.73-.16-.2-.37-.36-.62-.49-.25-.12-.52-.18-.81-.16-.29.02-.55.13-.77.33-.41.36-.56.93-.48,1.68.09.75.38,1.4.88,1.95-.17,1.42-.47,3.07-.92,4.94-.98.3-1.68.89-2.12,1.77-.43.88-.57,1.84-.41,2.88.02.12.05.24.08.36-.05.1-.08.21-.06.34,0,.78-.07,1.86-.22,3.23-.16.59-.39,1.15-.69,1.68-.31.53-.65.98-1.03,1.34-.38.36-.81.53-1.29.52-.48-.01-.94-.28-1.4-.8.4-.8.72-1.45.96-1.94.24-.5.49-1.14.76-1.94.27-.79.45-1.54.53-2.23.15-.65.14-1.28-.02-1.89-.16-.61-.48-1.09-.97-1.44-.49-.35-1.09-.47-1.8-.37-.94.12-1.77.46-2.49,1.03-.72.57-1.25,1.31-1.61,2.24-.36.93-.61,1.93-.75,2.99-.14,1.06-.11,2.15.1,3.26.05.26.12.5.17.74-.16.13-.25.29-.24.52-.07,3.1-.59,4.77-1.56,5-.32.1-.86-1.26-1.62-4.06-.76-2.8-1.47-5.88-2.13-9.23,1.41-1.27,2.6-2.18,3.56-2.73,1.46-.83,2.18-.69,2.15.43.52-.02,1.01-.27,1.46-.75.5-.81.77-1.56.83-2.26.05-.7-.13-1.24-.53-1.63-.25-.25-.51-.43-.78-.57-.27-.13-.55-.19-.86-.19-.3.01-.58.04-.82.08-.24.04-.54.17-.9.38-.36.21-.67.39-.92.55-.25.15-.59.41-1.02.77-.43.36-.76.64-1.01.85-.25.21-.62.54-1.12.99-.3.26-.54.46-.71.6-.12-.75-.19-1.37-.22-1.86-1.15.14-2.37.62-3.67,1.43-.03.76.09,1.9.36,3.41-2.34,1.65-4.54,2.59-6.62,2.81.21.54.51,1,.88,1.39.38.39.8.67,1.27.87.47.19,1.08.2,1.82.03.75-.17,1.58-.54,2.51-1.1l.65-.56c.48,2.59,1.01,5.19,1.6,7.8.15.68.3,1.31.43,1.88-.08.11-.13.24-.13.4-.15,2.92-.67,4.55-1.56,4.9-.11-.69-.24-1.42-.38-2.18-.14-.77-.29-1.57-.44-2.41-.15-.84-.29-1.72-.44-2.65-.27-.76-.56-1.35-.86-1.76-.3-.41-.64-.61-1.01-.61-.38,0-.75.11-1.11.32-.36.21-.74.54-1.13.99-.39.45-.74.91-1.05,1.4-.31.49-.6.99-.89,1.52-.05-.17-.1-.43-.14-.79-.04-.35-.09-.63-.13-.83-.5.31-1.26.76-2.28,1.34-1.02.58-1.79,1.01-2.3,1.31.38,2.36.75,4.69,1.11,6.98-.03.02-.05.04-.08.07-.1.12-.16.25-.16.39,0,.06,0,.1,0,.13-.27,2.97-.81,4.44-1.62,4.41-.66-.02-1.25-.95-1.76-2.79-.66-2.52-.71-4.99-.13-7.42l-3.12,1.77c-.12.58-.13,1.37-.02,2.35-.99-.4-1.92-.54-2.79-.41-2.07.24-3.56,1.68-4.44,4.31-.6,1.78-.78,3.58-.56,5.42-.06.03-.13.05-.17.1-.1.11-.16.24-.19.39-.35,3.05-1.04,4.65-2.05,4.78-.34.1-.62-.44-.84-1.61l-.41-6.21-.05-.73v-.3s-.02.02-.02.02l-.59-10.09c-2.06,1.02-3.63,1.77-4.71,2.25.12,1.66.31,4.15.57,7.45.26,3.3.45,5.78.57,7.44,0,.12.02.33.04.56-.01,0-.02.01-.03.03-.1.1-.17.23-.2.39-.43,3.04-1.15,4.62-2.17,4.73-.34.09-.61-.46-.8-1.63l-.25-6.22-.03-.73.02-.3-.03.02-.34-10.1c-2.08.97-3.67,1.68-4.76,2.13.08,1.67.2,4.15.38,7.46.18,3.31.31,5.79.38,7.46,0,.12.01.32.02.55-.09.1-.16.21-.19.35-.54,3.04-1.3,4.6-2.3,4.67-.23.03-.39-.32-.48-1.04-.16-1.18-.06-4.45.3-9.82l-4.42,1.99c-.47,2.62-.67,5.07-.6,7.33-.13.1-.21.24-.24.42-.64,3.03-1.46,4.57-2.46,4.62-.33.04-.61-1.39-.83-4.29-.22-2.89-.35-6.05-.38-9.46,1.56-.94,2.84-1.6,3.88-1.97.3.46.71.79,1.24.98.67.25,1.34.22,2.01-.09.4-.19.74-.47,1.01-.85.24-.33.37-.7.42-1.09.12-.24.22-.48.28-.71.18-.68.11-1.24-.22-1.7-.2-.29-.42-.52-.66-.7-.24-.18-.51-.3-.81-.34-.3-.05-.57-.07-.81-.08-.24,0-.56.07-.96.21-.4.14-.73.27-1.01.37-.28.1-.66.29-1.15.57-.49.27-.87.49-1.15.65-.28.16-.71.41-1.28.76-.34.2-.61.36-.81.46.03-.76.07-1.38.13-1.87-1.16-.07-2.45.17-3.88.72-.17.74-.26,1.88-.28,3.41-2.6,1.19-4.95,1.7-7.03,1.54.11.57.31,1.08.61,1.53.3.45.66.81,1.09,1.09.42.28,1.02.4,1.78.37.77-.03,1.66-.23,2.67-.61l.74-.44c0,2.63.03,5.29.13,7.97.02.67.05,1.3.07,1.87-.26.07-.41.23-.46.5-.27,1.03-.6,2.04-.99,3.03-.29.56-.64,1.06-1.07,1.51-.42.45-.86.8-1.33,1.04-.46.24-.92.29-1.39.15-.46-.14-.85-.51-1.15-1.11.59-.67,1.06-1.22,1.41-1.64.35-.42.75-.98,1.2-1.68.45-.7.81-1.38,1.09-2.03.29-.61.44-1.23.45-1.85s-.19-1.16-.58-1.62c-.39-.46-.94-.72-1.65-.8-.94-.12-1.83.01-2.67.38-.83.37-1.54.96-2.11,1.77-.58.81-1.06,1.72-1.46,2.71-.4,1-.64,2.05-.72,3.16-.08,1.11-.05,2.16.09,3.15.14.99.47,1.87.98,2.64.52.77,1.18,1.31,1.99,1.64,1.02.4,2.24.38,3.65-.08,1.41-.46,2.41-1.16,3-2.09.7-1,1.28-2.3,1.75-3.89.1-.35.17-.66.26-.99.26,1.58.82,2.65,1.69,3.2.9.56,2,.45,3.3-.32.57-.3,1.09-.85,1.57-1.65.48-.81.86-1.72,1.17-2.74.14-.47.26-.92.37-1.36.28,1.27.81,2.16,1.6,2.62.92.54,2.04.42,3.33-.37.56-.31,1.07-.89,1.53-1.72.46-.83.82-1.76,1.09-2.78.07-.25.12-.49.18-.74,0,.01,0,.03,0,.04.1.39.22.71.37.95.15.24.32.48.52.72.2.23.44.41.73.52.29.12.62.18.97.17.45.03.89-.04,1.31-.19.42-.15.87-.37,1.36-.67.53-.32,1.02-.9,1.45-1.74.44-.85.78-1.78,1.03-2.81.07-.28.12-.55.18-.82,0,.02,0,.04.01.06.11.39.24.7.39.95.15.24.33.47.53.7s.45.4.74.51c.3.11.62.16.97.14.45.01.89-.06,1.3-.22.42-.16.87-.4,1.35-.7.52-.33.99-.92,1.41-1.78.41-.86.73-1.8.96-2.84.18-.85.32-1.64.42-2.39.74,1.54,1.81,2.48,3.21,2.79.83.21,1.56.22,2.18.02.62-.2,1.12-.55,1.48-1.06.37-.51.64-1.08.83-1.73.19-.64.31-1.37.37-2.16,2.77,2.37,4.76,1.78,5.97-1.78.24-.7.43-1.47.58-2.25.06.42.13.85.2,1.28.68.48,1.48.67,2.41.57.93-.1,1.81-.41,2.64-.93-.26-1.76-.48-3.21-.66-4.34-.19-1.13-.4-2.35-.64-3.64-.24-1.29-.41-2.18-.51-2.67.12-1.35.42-2.37.92-3.06l.94,6.17c.16.72.4,1.4.71,2.04.32.65.7,1.23,1.15,1.74.45.52,1.01.8,1.67.85.66.05,1.34-.2,2.04-.75l.19-.12c.52-.38.94-1.02,1.27-1.91.33-.89.56-1.87.69-2.94.05-.43.09-.84.12-1.24.52,1.14,1.18,1.88,2,2.19.98.38,2.05.08,3.19-.92.51-.4.92-1.04,1.24-1.91.32-.88.53-1.85.64-2.91.08-.82.12-1.56.15-2.28.3.46.64.87,1.04,1.23.7.63,1.47.99,2.32,1.08,1.11.16,2.28-.17,3.53-.99,1.25-.82,2.04-1.75,2.36-2.79.44-1.13.7-2.51.76-4.16.02-.5.03-.98.03-1.46.93,1.06,2.2,1.65,3.81,1.78,1.87.14,3.45-.49,4.77-1.91.89-1.03,1.45-2.13,1.7-3.28.24-1.15.22-2.25-.07-3.3M193.77,178.38c-.07-.32-.09-.56-.08-.72-.03-1.18.11-2.23.4-3.16.29-.93.67-1.48,1.13-1.66.12-.04.22-.07.32-.08.8-.12.87.65.2,2.3-.58,1.46-1.24,2.57-1.98,3.33M239.1,159.42c-.14.97-.42,1.58-.82,1.81-.41.23-.83.03-1.27-.62-.44-.65-.76-1.52-.96-2.62-.19-1.14-.22-2.19-.07-3.15.15-.96.42-1.56.83-1.79.43-.24.86-.05,1.29.59.43.63.74,1.52.94,2.66.18,1.12.2,2.16.06,3.13M270.59,137.3c-.04-.06-.09-.17-.14-.33-.05-.16-.1-.28-.13-.38-.21-.73-.33-1.45-.37-2.16-.03-.72,0-1.32.12-1.83.11-.5.3-.85.56-1.03.1-.07.2-.13.29-.16.74-.31,1.01.4.79,2.15-.21,1.59-.58,2.84-1.13,3.73M283.7,130.61c-.15.95-.67,1.33-1.54,1.15-.75-.18-1.21-.59-1.39-1.23-.24-.81.27-1.5,1.51-2.06-.4-.5-.93-.78-1.57-.86.04-.28.11-.81.2-1.61.1-.8.16-1.34.18-1.64,1.2,1.07,2.02,2.49,2.46,4.26.2.81.25,1.46.14,1.98"/>
  <path class="cls-2" d="M247.57,178.4c-.53-1.02-.77-1.85-.73-2.5.04-.84.54-1.51,1.48-2,.71-.37,1.49-.38,2.32-.03l-2.19-4.25,1.55-.8,6.6,12.76-1.56.8-.47-.92c-.17.93-.66,1.61-1.46,2.02-1.53.79-2.82.17-3.87-1.87l-1.67-3.23ZM253.04,181.93c.57-.3.84-.74.81-1.32-.02-.39-.2-.92-.53-1.57l-1.36-2.64c-.35-.68-.68-1.14-.98-1.38-.46-.37-1-.39-1.59-.09-.83.43-.84,1.42-.04,2.98l1.24,2.4c.79,1.53,1.61,2.08,2.47,1.64"/>
  <path class="cls-2" d="M256.1,169.6c1.92-1.07,3.49-.52,4.69,1.65l1.03,1.86-4.3,2.39.46.9c.79,1.48,1.64,1.97,2.56,1.46.58-.33.88-.74.88-1.26,0-.35-.17-.85-.51-1.51l1.53-.85.17.3c.5.9.63,1.74.4,2.53-.24.79-.81,1.43-1.72,1.93-1.28.71-2.38.74-3.3.08-.58-.41-1.28-1.36-2.1-2.84-.96-1.74-1.49-2.92-1.59-3.55-.21-1.27.39-2.3,1.8-3.08M259.57,172.64c-.24-.41-.48-.81-.73-1.22-.29-.42-.58-.68-.88-.78-.39-.13-.86-.04-1.4.27-.83.46-.83,1.41,0,2.84l.24.43,2.77-1.54Z"/>
  <polygon class="cls-2" points="261.82 162.08 268.12 158.22 268.99 159.65 266.63 161.09 273.26 171.92 271.69 172.89 265.05 162.06 262.69 163.51 261.82 162.08"/>
  <path class="cls-2" d="M270.11,161.58l1.39-.88.7,1.14c-.23-.49-.2-1,.11-1.53.26-.42.65-.8,1.17-1.13l.07-.04.9,1.43c-.78.51-1.23,1-1.32,1.48-.1.48.1,1.12.6,1.91l3.53,5.55-1.51.96-5.64-8.88Z"/>
  <path class="cls-2" d="M275.89,162c-1.31-1.97-1.07-3.56.73-4.75,1.16-.77,2.18-.96,3.05-.58.67.31,1.41,1.08,2.23,2.31l1.42,2.13c1.39,2.09,1.14,3.76-.74,5.01-1,.67-1.92.85-2.75.54-.72-.26-1.43-.91-2.13-1.96l-1.8-2.71ZM281.92,164.93c.57-.38.77-.88.61-1.51-.09-.34-.37-.87-.84-1.57l-1.59-2.39c-.44-.65-.83-1.06-1.17-1.24-.49-.27-1.02-.2-1.61.19-.79.52-.73,1.47.19,2.85l1.62,2.44c.43.65.82,1.09,1.17,1.31.52.33,1.06.31,1.63-.07"/>
  <path class="cls-2" d="M281.53,153.97l4.72,4.23c.48.43.94.92,1.38,1.46-.57-1-1.17-2.26-1.78-3.75-.52-1.29-1.04-2.58-1.55-3.88l1.56-1.09,4.36,11.83c.32.88.32,1.59,0,2.13-.19.31-.72.79-1.61,1.46l-.9-1.24.18-.13c.55-.38.77-.88.67-1.47-.2-.55-.4-1.1-.6-1.66l-8.01-6.79,1.57-1.1Z"/>
  <path class="cls-2" d="M288.93,148.61c1.77-1.3,3.39-.96,4.86,1.04l1.26,1.71-3.96,2.91.57.83c.97,1.37,1.88,1.74,2.72,1.12.54-.4.78-.85.71-1.36-.05-.34-.28-.82-.7-1.44l1.41-1.04.2.28c.61.83.85,1.65.72,2.46-.14.81-.62,1.52-1.46,2.13-1.19.87-2.27,1.04-3.26.5-.63-.34-1.44-1.19-2.44-2.55-1.18-1.6-1.85-2.71-2.03-3.32-.37-1.23.1-2.33,1.4-3.28M292.75,151.2c-.29-.37-.58-.75-.88-1.12-.34-.38-.66-.6-.97-.66-.4-.08-.85.07-1.36.44-.76.56-.64,1.5.37,2.82l.29.39,2.55-1.88Z"/>
  <path class="cls-2" d="M298.3,150.26c.45.58.83.95,1.14,1.13.5.29.99.24,1.48-.14.73-.57.79-1.25.18-2.05-.4-.52-1.06-.75-1.95-.69-.81.08-1.63.15-2.45.23-.97-.03-1.75-.42-2.33-1.18-.45-.58-.57-1.24-.36-1.99.19-.67.57-1.24,1.16-1.7,1.54-1.21,2.92-1.02,4.14.57l.18.23-1.35,1.04c-.04-.05-.1-.12-.17-.22-.07-.1-.13-.17-.17-.22-.56-.73-1.19-.83-1.87-.3-.27.21-.42.47-.44.79-.02.32.07.62.29.91.31.4.9.56,1.78.47,1.54-.14,2.37-.21,2.48-.2,1,.05,1.78.45,2.34,1.18.56.72.79,1.46.69,2.21-.1.75-.51,1.4-1.23,1.95-1.68,1.29-3.19,1.08-4.51-.63l-.31-.39,1.27-.99Z"/>
  <path class="cls-1" d="M184.46,160.04c-.16.04-.33.08-.49.13,0,0-.01,0-.02,0-.15.05-.3.1-.44.15-.32.12-.63.26-.93.43.77-.26,1.54-.52,2.31-.78-.13.01-.27.04-.41.07Z"/>
  <path class="cls-2" d="M122.51,197.94c.08.74-.02,1.22-.29,1.45-.42.32-1.53-.01-3.34-1.01-2.57-1.39-4.22-2.23-4.94-2.52.31-1.28.93-3.06,1.85-5.34l.04.04c2.01-5.37,3.84-8.57,5.49-9.62,1.26.36,2.02.17,2.29-.57.22-.64.02-1.3-.6-1.96-.8-.83-1.76-.96-2.89-.39-.55-.27-1.13-.51-1.76-.73-.63-.22-1.33-.41-2.11-.58-.78-.17-1.54-.28-2.28-.34-.74-.06-1.52-.05-2.33.03-1.23.13-2.31.64-3.23,1.52-.92.88-1.38,2-1.37,3.36,0,1.04.42,1.95,1.26,2.75.83.8,1.78,1.25,2.84,1.37.84.04,1.63-.14,2.37-.55.74-.41,1.31-.99,1.73-1.73-.56.32-1.05.35-1.46.06-.41-.28-.61-.73-.62-1.35.02-.47.17-.86.44-1.19.27-.32.58-.56.94-.71.36-.15.77-.24,1.24-.28.47-.04.91-.04,1.31.01.41.05.8.11,1.17.18h.15c.07.02.17.06.29.11.12.05.2.07.22.07-1.77,1.59-3.58,3.86-5.45,6.82-1.87,2.96-3.14,5.7-3.81,8.22-.59.1-1.16.27-1.72.51-.55.24-1.09.59-1.6,1.06-.51.47-.83,1.05-.95,1.73-.12.68-.04,1.5.24,2.46.44-.92,1-1.47,1.69-1.68.69-.2,1.44-.12,2.26.24.82.36,1.68.85,2.6,1.45.92.6,1.88,1.21,2.88,1.85,1,.63,1.98,1.16,2.93,1.57.95.41,1.92.57,2.91.48.98-.09,1.86-.54,2.62-1.33.34-.32.57-.87.69-1.65.12-.78.03-1.55-.25-2.33-.29-.77-.77-1.27-1.43-1.49"/>
  <path class="cls-2" d="M149.47,187.63c-.41-1.13-.93-2.24-1.56-3.31.33-.1.58-.28.74-.51.16-.24.21-.48.16-.74-.05-.26-.16-.49-.32-.72-.16-.22-.38-.39-.65-.51-.27-.12-.55-.14-.84-.07-.53.14-.93.56-1.2,1.27-.27.71-.31,1.42-.12,2.14-.81,1.18-1.84,2.5-3.1,3.96-1.01-.18-1.91.01-2.7.59-.79.58-1.36,1.37-1.69,2.36-.03.08-.04.17-.07.25-.26,0-.45.12-.55.36-.38.68-.97,1.58-1.78,2.7-.43.44-.91.81-1.43,1.12-.53.31-1.05.53-1.55.65-.51.12-.97.06-1.37-.18-.41-.24-.68-.71-.82-1.39.74-.49,1.35-.9,1.8-1.21.45-.32.99-.75,1.62-1.31.63-.56,1.15-1.12,1.57-1.68.45-.49.76-1.04.92-1.65.16-.61.12-1.19-.13-1.74-.25-.55-.71-.95-1.38-1.2-.88-.36-1.77-.47-2.67-.34-.9.14-1.74.52-2.51,1.15-.77.63-1.48,1.38-2.13,2.23-.65.86-1.16,1.82-1.52,2.88-.37,1.06-.62,2.09-.74,3.06-.13.98-.04,1.91.25,2.8.3.89.79,1.58,1.49,2.09.88.68,2.07.98,3.56.88,1.49-.09,2.63-.51,3.43-1.26.94-.76,1.85-1.84,2.72-3.23.39-.63.74-1.23,1.06-1.82.21,1.64,1.1,2.94,2.67,3.92,1.59.99,3.29,1.16,5.11.51,1.27-.51,2.27-1.22,3.02-2.13.75-.91,1.24-1.9,1.46-2.96.23-1.06.26-2.2.11-3.43-.15-1.22-.43-2.4-.84-3.54M130.71,193.12c.03-.17.06-.3.07-.4.18-.73.43-1.42.75-2.06.32-.64.66-1.15,1-1.53.35-.38.68-.59,1-.62.12-.01.23,0,.33,0,.8.1.68.85-.38,2.27-.97,1.28-1.91,2.18-2.83,2.69,0-.08,0-.19.04-.36M146.52,192.06c-.19.81-.46,1.41-.79,1.82-.57.77-1.21.87-1.9.31-.58-.51-.8-1.08-.66-1.73.16-.83.93-1.2,2.29-1.13-.13-.63-.46-1.12-.99-1.49.16-.23.47-.67.92-1.33.45-.66.76-1.12.92-1.37.57,1.51.64,3.14.21,4.92"/>
  <path class="cls-2" d="M186.45,169.01c-.97-1.12-2.24-1.98-3.81-2.58.36-.5.83-.81,1.41-.94.51-.1.97-.02,1.38.26.41.28.65.7.72,1.27.63-.14,1.13-.53,1.5-1.18.37-.64.42-1.27.15-1.89-.23-.5-.59-.88-1.07-1.14-.48-.26-1.05-.33-1.71-.21-1.45.32-2.81,1.43-4.08,3.34-.79-.12-1.69-.16-2.71-.12-1.02.04-1.98.14-2.87.28-.9.15-1.68.34-2.36.57-.33.1-.57.19-.73.26-.39.17-.76.39-1.12.65l-.07.02c-.18.18-.28.28-.3.28-.72.61-1.23,1.36-1.53,2.25-.31.89-.31,1.83-.01,2.79.3.99.97,1.75,2,2.27,1.03.53,2.07.69,3.15.49.82-.2,1.52-.6,2.1-1.21.59-.61.96-1.32,1.12-2.15-.45.47-.91.63-1.38.48-.47-.15-.8-.52-.98-1.11-.11-.53-.08-1.01.1-1.44.18-.43.46-.76.84-.99.38-.23.81-.44,1.3-.61.49-.18.97-.29,1.45-.33v.04c.18-.05.41-.08.72-.1l.11-.03s-.05.12-.09.28c-.04.16-.09.31-.13.47-.04.15-.07.25-.09.28-.39,1.25-.85,3.4-1.39,6.43-.14.64-.33,1.61-.57,2.93-.21.82-.4,1.5-.57,2.05-.16.55-.42,1.2-.76,1.94-.34.74-.78,1.35-1.31,1.84-.53.49-1.14.84-1.83,1.05-.72.25-1.36.24-1.91-.03-.76-.39-1.16-1.05-1.19-2-.03-.84.3-1.37.99-1.58.42-.15.78-.12,1.08.11.3.23.41.62.32,1.16,1.32-.82,2.09-1.76,2.3-2.84.24-1.24-.28-2.25-1.56-3.04-1.54-.97-3.39-1.12-5.56-.46-2.36.73-4.11,2.19-5.25,4.38-1.14,2.2-1.35,4.47-.63,6.83.64,2.07,1.84,3.73,3.62,4.96,1.77,1.24,3.66,1.65,5.65,1.24,1.66-.3,3.08-.85,4.26-1.64,1.18-.79,2.1-1.77,2.77-2.96.67-1.19,1.17-2.42,1.5-3.69.33-1.28.55-2.72.65-4.32,1.3.2,2.48.08,3.53-.35,1.77-.78,3.1-1.94,3.98-3.49.88-1.55,1.09-3.32.63-5.32-.18-1.18-.76-2.34-1.72-3.46M183.63,174.02c-.29.68-.74,1.27-1.34,1.75-.6.48-1.28.78-2.05.88v-.2c.02-.23.04-.55.07-.96.03-.41.06-.73.09-.97,0-.23.04-.56.1-.98.06-.42.14-.89.24-1.43.09-.53.22-1.11.37-1.74.15-.63.32-1.21.49-1.75.03-.06.07-.15.11-.27.8.32,1.4.82,1.81,1.48.41.66.6,1.36.58,2.09-.02.73-.18,1.44-.47,2.12"/>
  <path class="cls-2" d="M190.56,167.65c.19.3.46.55.8.76.35.21.76.4,1.24.56-.11-.99-.07-1.93.13-2.84.2-.9.39-1.68.58-2.32.19-.64.25-1.16.18-1.55-.14-.84-.83-1.39-2.08-1.62-.06.13-.19.45-.39.96-.2.51-.34.88-.42,1.09-.08.21-.19.56-.35,1.05-.16.48-.24.85-.25,1.1,0,.26-.03.58-.06.99-.03.41.02.74.14,1,.12.26.28.53.47.83"/>
  <path class="cls-2" d="M288,129.19c-.29-1.04-.79-2.07-1.49-3.09-.7-1.02-1.49-1.93-2.38-2.75-.89-.82-1.86-1.55-2.91-2.21.25-.25.39-.51.42-.8.03-.29-.04-.53-.2-.73-.16-.2-.37-.36-.62-.49-.25-.12-.52-.18-.81-.16-.29.02-.55.13-.77.33-.41.36-.56.93-.48,1.68.09.75.38,1.4.88,1.95-.17,1.42-.47,3.07-.92,4.94-.98.3-1.68.89-2.12,1.77-.43.88-.57,1.84-.41,2.88.02.12.05.24.08.36-.05.1-.08.21-.06.34,0,.78-.07,1.86-.22,3.23-.16.59-.39,1.15-.69,1.68-.31.53-.65.98-1.03,1.34-.38.36-.81.53-1.29.52-.48-.01-.94-.28-1.4-.8.4-.8.72-1.45.96-1.94.24-.5.49-1.14.76-1.94.27-.79.45-1.54.53-2.23.15-.65.14-1.28-.02-1.89-.16-.61-.48-1.09-.97-1.44-.49-.35-1.09-.47-1.8-.37-.94.12-1.77.46-2.49,1.03-.72.57-1.25,1.31-1.61,2.24-.36.93-.61,1.93-.75,2.99-.14,1.06-.11,2.15.1,3.26.05.26.12.5.17.74-.16.13-.25.29-.24.52-.07,3.1-.59,4.77-1.56,5-.32.1-.86-1.26-1.62-4.06-.76-2.8-1.47-5.88-2.13-9.23,1.41-1.27,2.6-2.18,3.56-2.73,1.46-.83,2.18-.69,2.15.43.52-.02,1.01-.27,1.46-.75.5-.81.77-1.56.83-2.26.05-.7-.13-1.24-.53-1.63-.25-.25-.51-.43-.78-.57-.27-.13-.55-.19-.86-.19-.3.01-.58.04-.82.08-.24.04-.54.17-.9.38-.36.21-.67.39-.92.55-.25.15-.59.41-1.02.77-.43.36-.76.64-1.01.85-.25.21-.62.54-1.12.99-.3.26-.54.46-.71.6-.12-.75-.19-1.37-.22-1.86-1.15.14-2.37.62-3.67,1.43-.03.76.09,1.9.36,3.41-2.34,1.65-4.54,2.59-6.62,2.81.21.54.51,1,.88,1.39.38.39.8.67,1.27.87.47.19,1.08.2,1.82.03.75-.17,1.58-.54,2.51-1.1l.65-.56c.48,2.59,1.01,5.19,1.6,7.8.15.68.3,1.31.43,1.88-.08.11-.13.24-.13.4-.15,2.92-.67,4.55-1.56,4.9-.11-.69-.24-1.42-.38-2.18-.14-.77-.29-1.57-.44-2.41-.15-.84-.29-1.72-.44-2.65-.27-.76-.56-1.35-.86-1.76-.3-.41-.64-.61-1.01-.61-.38,0-.75.11-1.11.32-.36.21-.74.54-1.13.99-.39.45-.74.91-1.05,1.4-.31.49-.6.99-.89,1.52-.05-.17-.1-.43-.14-.79-.04-.35-.09-.63-.13-.83-.5.31-1.26.76-2.28,1.34-1.02.58-1.79,1.01-2.3,1.31.38,2.36.75,4.69,1.11,6.98-.03.02-.05.04-.08.07-.1.12-.16.25-.16.39,0,.06,0,.1,0,.13-.27,2.97-.81,4.44-1.62,4.41-.66-.02-1.25-.95-1.76-2.79-.66-2.52-.71-4.99-.13-7.42l-3.12,1.77c-.12.58-.13,1.37-.02,2.35-.99-.4-1.92-.54-2.79-.41-2.07.24-3.56,1.68-4.44,4.31-.6,1.78-.78,3.58-.56,5.42-.06.03-.13.05-.17.1-.1.11-.16.24-.19.39-.35,3.05-1.04,4.65-2.05,4.78-.34.1-.62-.44-.84-1.61l-.41-6.21-.05-.73v-.3s-.02.02-.02.02l-.59-10.09c-2.06,1.02-3.63,1.77-4.71,2.25.12,1.66.31,4.15.57,7.45.26,3.3.45,5.78.57,7.44,0,.12.02.33.04.56-.01,0-.02.01-.03.03-.1.1-.17.23-.2.39-.43,3.04-1.15,4.62-2.17,4.73-.34.09-.61-.46-.8-1.63l-.25-6.22-.03-.73.02-.3-.03.02-.34-10.1c-2.08.97-3.67,1.68-4.76,2.13.08,1.67.2,4.15.38,7.46.18,3.31.31,5.79.38,7.46,0,.12.01.32.02.55-.09.1-.16.21-.19.35-.54,3.04-1.3,4.6-2.3,4.67-.23.03-.39-.32-.48-1.04-.16-1.18-.06-4.45.3-9.82l-4.42,1.99c-.47,2.62-.67,5.07-.6,7.33-.13.1-.21.24-.24.42-.64,3.03-1.46,4.57-2.46,4.62-.33.04-.61-1.39-.83-4.29-.22-2.89-.35-6.05-.38-9.46,1.56-.94,2.84-1.6,3.88-1.97.3.46.71.79,1.24.98.67.25,1.34.22,2.01-.09.4-.19.74-.47,1.01-.85.24-.33.37-.7.42-1.09.12-.24.22-.48.28-.71.18-.68.11-1.24-.22-1.7-.2-.29-.42-.52-.66-.7-.24-.18-.51-.3-.81-.34-.3-.05-.57-.07-.81-.08-.24,0-.56.07-.96.21-.4.14-.73.27-1.01.37-.28.1-.66.29-1.15.57-.49.27-.87.49-1.15.65-.28.16-.71.41-1.28.76-.34.2-.61.36-.81.46.03-.76.07-1.38.13-1.87-1.16-.07-2.45.17-3.88.72-.17.74-.26,1.88-.28,3.41-2.6,1.19-4.95,1.7-7.03,1.54.11.57.31,1.08.61,1.53.3.45.66.81,1.09,1.09.42.28,1.02.4,1.78.37.77-.03,1.66-.23,2.67-.61l.74-.44c0,2.63.03,5.29.13,7.97.02.67.05,1.3.07,1.87-.26.07-.41.23-.46.5-.27,1.03-.6,2.04-.99,3.03-.29.56-.64,1.06-1.07,1.51-.42.45-.86.8-1.33,1.04-.46.24-.92.29-1.39.15-.46-.14-.85-.51-1.15-1.11.59-.67,1.06-1.22,1.41-1.64.35-.42.75-.98,1.2-1.68.45-.7.81-1.38,1.09-2.03.29-.61.44-1.23.45-1.85s-.19-1.16-.58-1.62c-.39-.46-.94-.72-1.65-.8-.94-.12-1.83.01-2.67.38-.83.37-1.54.96-2.11,1.77-.58.81-1.06,1.72-1.46,2.71-.4,1-.64,2.05-.72,3.16-.08,1.11-.05,2.16.09,3.15.14.99.47,1.87.98,2.64.52.77,1.18,1.31,1.99,1.64,1.02.4,2.24.38,3.65-.08,1.41-.46,2.41-1.16,3-2.09.7-1,1.28-2.3,1.75-3.89.1-.35.17-.66.26-.99.26,1.58.82,2.65,1.69,3.2.9.56,2,.45,3.3-.32.57-.3,1.09-.85,1.57-1.65.48-.81.86-1.72,1.17-2.74.14-.47.26-.92.37-1.36.28,1.27.81,2.16,1.6,2.62.92.54,2.04.42,3.33-.37.56-.31,1.07-.89,1.53-1.72.46-.83.82-1.76,1.09-2.78.07-.25.12-.49.18-.74,0,.01,0,.03,0,.04.1.39.22.71.37.95.15.24.32.48.52.72.2.23.44.41.73.52.29.12.62.18.97.17.45.03.89-.04,1.31-.19.42-.15.87-.37,1.36-.67.53-.32,1.02-.9,1.45-1.74.44-.85.78-1.78,1.03-2.81.07-.28.12-.55.18-.82,0,.02,0,.04.01.06.11.39.24.7.39.95.15.24.33.47.53.7s.45.4.74.51c.3.11.62.16.97.14.45.01.89-.06,1.3-.22.42-.16.87-.4,1.35-.7.52-.33.99-.92,1.41-1.78.41-.86.73-1.8.96-2.84.18-.85.32-1.64.42-2.39.74,1.54,1.81,2.48,3.21,2.79.83.21,1.56.22,2.18.02.62-.2,1.12-.55,1.48-1.06.37-.51.64-1.08.83-1.73.19-.64.31-1.37.37-2.16,2.77,2.37,4.76,1.78,5.97-1.78.24-.7.43-1.47.58-2.25.06.42.13.85.2,1.28.68.48,1.48.67,2.41.57.93-.1,1.81-.41,2.64-.93-.26-1.76-.48-3.21-.66-4.34-.19-1.13-.4-2.35-.64-3.64-.24-1.29-.41-2.18-.51-2.67.12-1.35.42-2.37.92-3.06l.94,6.17c.16.72.4,1.4.71,2.04.32.65.7,1.23,1.15,1.74.45.52,1.01.8,1.67.85.66.05,1.34-.2,2.04-.75l.19-.12c.52-.38.94-1.02,1.27-1.91.33-.89.56-1.87.69-2.94.05-.43.09-.84.12-1.24.52,1.14,1.18,1.88,2,2.19.98.38,2.05.08,3.19-.92.51-.4.92-1.04,1.24-1.91.32-.88.53-1.85.64-2.91.08-.82.12-1.56.15-2.28.3.46.64.87,1.04,1.23.7.63,1.47.99,2.32,1.08,1.11.16,2.28-.17,3.53-.99,1.25-.82,2.04-1.75,2.36-2.79.44-1.13.7-2.51.76-4.16.02-.5.03-.98.03-1.46.93,1.06,2.2,1.65,3.81,1.78,1.87.14,3.45-.49,4.77-1.91.89-1.03,1.45-2.13,1.7-3.28.24-1.15.22-2.25-.07-3.3M193.77,178.38c-.07-.32-.09-.56-.08-.72-.03-1.18.11-2.23.4-3.16.29-.93.67-1.48,1.13-1.66.12-.04.22-.07.32-.08.8-.12.87.65.2,2.3-.58,1.46-1.24,2.57-1.98,3.33M239.1,159.42c-.14.97-.42,1.58-.82,1.81-.41.23-.83.03-1.27-.62-.44-.65-.76-1.52-.96-2.62-.19-1.14-.22-2.19-.07-3.15.15-.96.42-1.56.83-1.79.43-.24.86-.05,1.29.59.43.63.74,1.52.94,2.66.18,1.12.2,2.16.06,3.13M270.59,137.3c-.04-.06-.09-.17-.14-.33-.05-.16-.1-.28-.13-.38-.21-.73-.33-1.45-.37-2.16-.03-.72,0-1.32.12-1.83.11-.5.3-.85.56-1.03.1-.07.2-.13.29-.16.74-.31,1.01.4.79,2.15-.21,1.59-.58,2.84-1.13,3.73M283.7,130.61c-.15.95-.67,1.33-1.54,1.15-.75-.18-1.21-.59-1.39-1.23-.24-.81.27-1.5,1.51-2.06-.4-.5-.93-.78-1.57-.86.04-.28.11-.81.2-1.61.1-.8.16-1.34.18-1.64,1.2,1.07,2.02,2.49,2.46,4.26.2.81.25,1.46.14,1.98"/>
</svg>